<svg xmlns="http://www.w3.org/2000/svg" width="256" height="256" viewBox="-64 -64 128 128"><g transform="translate(0 8)"><path d="M-30 -42 Q-41 -50.8 -34.4 -64 Q-32.2 -55.2 -25.6 -59.6 Q-16.799999999999997 -48.6 -30 -42Z" fill="#ff5a3c" stroke="#17121f" stroke-width="2.6" stroke-linejoin="round" stroke-linecap="round"/><path d="M0 -48 Q-14 -59.2 -5.6 -76 Q-2.8 -64.8 5.6 -70.4 Q16.799999999999997 -56.4 0 -48Z" fill="#ff5a3c" stroke="#17121f" stroke-width="2.6" stroke-linejoin="round" stroke-linecap="round"/><path d="M30 -42 Q19 -50.8 25.6 -64 Q27.8 -55.2 34.4 -59.6 Q43.2 -48.6 30 -42Z" fill="#ff5a3c" stroke="#17121f" stroke-width="2.6" stroke-linejoin="round" stroke-linecap="round"/><circle cx="0" cy="0" r="50" fill="#ffcf4a" stroke="#17121f" stroke-width="4.6" stroke-linejoin="round" stroke-linecap="round"/><path d="M-46 14 Q-30 48 0 50 Q30 48 46 14 Q30 38 0 40 Q-30 38 -46 14Z" fill="#e0a52a" opacity="0.6"/><path d="M-34 -28 Q-18 -42 4 -40" fill="none" stroke="#ffffff" stroke-width="5" stroke-linejoin="round" stroke-linecap="round" opacity="0.55"/><circle cx="0" cy="0" r="50" fill="#ff8a5c" opacity="0.55"/><path d="M-38 -22 L-8 -8 L-8 -16 L-36 -32Z" fill="#17121f" stroke="#17121f" stroke-width="3" stroke-linejoin="round" stroke-linecap="round"/><path d="M38 -22 L8 -8 L8 -16 L36 -32Z" fill="#17121f" stroke="#17121f" stroke-width="3" stroke-linejoin="round" stroke-linecap="round"/><circle cx="-19" cy="0" r="6.4" fill="#17121f"/><circle cx="19" cy="0" r="6.4" fill="#17121f"/><circle cx="-17.5" cy="-1.8" r="2" fill="#ffffff"/><circle cx="20.5" cy="-1.8" r="2" fill="#ffffff"/><path d="M-24 34 Q0 16 24 34 L18 38 L8 32 L0 38 L-8 32 L-18 38Z" fill="#5a1626" stroke="#17121f" stroke-width="3.4" stroke-linejoin="round" stroke-linecap="round"/></g></svg>
