<svg xmlns="http://www.w3.org/2000/svg" width="800" height="368" viewBox="-200 -92 400 184"><g><rect x="-13" y="-33" width="26" height="4" rx="1.5" fill="#5a3620" stroke="#17121f" stroke-width="2" stroke-linejoin="round" stroke-linecap="round"/><path d="M-11 -30 L11 -30 L11 10 L0 3 L-11 10Z" fill="#f4f4f4" stroke="#17121f" stroke-width="3" stroke-linejoin="round" stroke-linecap="round"/><path d="M0 -30 L11 -30 L11 10 L0 3Z" fill="#cfcfcf" opacity="0.9"/><circle cx="0" cy="-15.6" r="3.74" fill="#a3a3a3" opacity="0.8"/><line x1="-152" y1="-76" x2="-152" y2="-90" stroke="#17121f" stroke-width="5" stroke-linecap="round"/><line x1="-152" y1="-76" x2="-152" y2="-90" stroke="#b98250" stroke-width="2.4" stroke-linecap="round"/><circle cx="-152" cy="-91" r="2.6" fill="#f2c14e" stroke="#17121f" stroke-width="1.5" stroke-linejoin="round" stroke-linecap="round"/><path d="M-152 -88 Q-135.5 -92 -122 -81.5 Q-135.5 -76.4 -152 -73Z" fill="#f4f4f4" stroke="#17121f" stroke-width="3" stroke-linejoin="round" stroke-linecap="round"/><path d="M-152 -80.65 Q-135.5 -83.2 -122 -81.5 Q-135.5 -76.4 -152 -73Z" fill="#cfcfcf" opacity="0.85"/><line x1="152" y1="-76" x2="152" y2="-90" stroke="#17121f" stroke-width="5" stroke-linecap="round"/><line x1="152" y1="-76" x2="152" y2="-90" stroke="#b98250" stroke-width="2.4" stroke-linecap="round"/><circle cx="152" cy="-91" r="2.6" fill="#f2c14e" stroke="#17121f" stroke-width="1.5" stroke-linejoin="round" stroke-linecap="round"/><path d="M152 -88 Q168.5 -92 182 -81.5 Q168.5 -76.4 152 -73Z" fill="#f4f4f4" stroke="#17121f" stroke-width="3" stroke-linejoin="round" stroke-linecap="round"/><path d="M152 -80.65 Q168.5 -83.2 182 -81.5 Q168.5 -76.4 152 -73Z" fill="#cfcfcf" opacity="0.85"/><line x1="0" y1="-74" x2="0" y2="-86" stroke="#17121f" stroke-width="5" stroke-linecap="round"/><line x1="0" y1="-74" x2="0" y2="-86" stroke="#b98250" stroke-width="2.4" stroke-linecap="round"/><circle cx="0" cy="-87" r="2.6" fill="#f2c14e" stroke="#17121f" stroke-width="1.5" stroke-linejoin="round" stroke-linecap="round"/><path d="M0 -84 Q16.5 -88 30 -77.5 Q16.5 -72.4 0 -69Z" fill="#f4f4f4" stroke="#17121f" stroke-width="3" stroke-linejoin="round" stroke-linecap="round"/><path d="M0 -76.65 Q16.5 -79.2 30 -77.5 Q16.5 -72.4 0 -69Z" fill="#cfcfcf" opacity="0.85"/><rect x="-110" y="-5" width="20" height="4" rx="1.5" fill="#5a3620" stroke="#17121f" stroke-width="2" stroke-linejoin="round" stroke-linecap="round"/><path d="M-108 -2 L-92 -2 L-92 28 L-100 21 L-108 28Z" fill="#f4f4f4" stroke="#17121f" stroke-width="3" stroke-linejoin="round" stroke-linecap="round"/><path d="M-100 -2 L-92 -2 L-92 28 L-100 21Z" fill="#cfcfcf" opacity="0.9"/><circle cx="-100" cy="8.8" r="2.72" fill="#a3a3a3" opacity="0.8"/><rect x="90" y="-5" width="20" height="4" rx="1.5" fill="#5a3620" stroke="#17121f" stroke-width="2" stroke-linejoin="round" stroke-linecap="round"/><path d="M92 -2 L108 -2 L108 28 L100 21 L92 28Z" fill="#f4f4f4" stroke="#17121f" stroke-width="3" stroke-linejoin="round" stroke-linecap="round"/><path d="M100 -2 L108 -2 L108 28 L100 21Z" fill="#cfcfcf" opacity="0.9"/><circle cx="100" cy="8.8" r="2.72" fill="#a3a3a3" opacity="0.8"/></g></svg>
