<svg xmlns="http://www.w3.org/2000/svg" width="340" height="360" viewBox="-85 -90 170 180"><g><ellipse cx="0" cy="68" rx="70" ry="12" fill="#000000" opacity="0.28"/><rect x="-58" y="-4" width="104" height="62" rx="2" fill="#bdb7aa" stroke="#17121f" stroke-width="3" stroke-linejoin="round" stroke-linecap="round"/><line x1="-57" y1="5" x2="45" y2="5" stroke="#6a655c" stroke-width="1.4" stroke-linecap="round" opacity="0.55"/><line x1="-41" y1="-4" x2="-41" y2="5" stroke="#6a655c" stroke-width="1.4" stroke-linecap="round" opacity="0.55"/><line x1="-24" y1="-4" x2="-24" y2="5" stroke="#6a655c" stroke-width="1.4" stroke-linecap="round" opacity="0.55"/><line x1="-7" y1="-4" x2="-7" y2="5" stroke="#6a655c" stroke-width="1.4" stroke-linecap="round" opacity="0.55"/><line x1="10" y1="-4" x2="10" y2="5" stroke="#6a655c" stroke-width="1.4" stroke-linecap="round" opacity="0.55"/><line x1="27" y1="-4" x2="27" y2="5" stroke="#6a655c" stroke-width="1.4" stroke-linecap="round" opacity="0.55"/><line x1="-57" y1="14" x2="45" y2="14" stroke="#6a655c" stroke-width="1.4" stroke-linecap="round" opacity="0.55"/><line x1="-49.5" y1="5" x2="-49.5" y2="14" stroke="#6a655c" stroke-width="1.4" stroke-linecap="round" opacity="0.55"/><line x1="-32.5" y1="5" x2="-32.5" y2="14" stroke="#6a655c" stroke-width="1.4" stroke-linecap="round" opacity="0.55"/><line x1="-15.5" y1="5" x2="-15.5" y2="14" stroke="#6a655c" stroke-width="1.4" stroke-linecap="round" opacity="0.55"/><line x1="1.5" y1="5" x2="1.5" y2="14" stroke="#6a655c" stroke-width="1.4" stroke-linecap="round" opacity="0.55"/><line x1="18.5" y1="5" x2="18.5" y2="14" stroke="#6a655c" stroke-width="1.4" stroke-linecap="round" opacity="0.55"/><line x1="35.5" y1="5" x2="35.5" y2="14" stroke="#6a655c" stroke-width="1.4" stroke-linecap="round" opacity="0.55"/><line x1="-57" y1="23" x2="45" y2="23" stroke="#6a655c" stroke-width="1.4" stroke-linecap="round" opacity="0.55"/><line x1="-41" y1="14" x2="-41" y2="23" stroke="#6a655c" stroke-width="1.4" stroke-linecap="round" opacity="0.55"/><line x1="-24" y1="14" x2="-24" y2="23" stroke="#6a655c" stroke-width="1.4" stroke-linecap="round" opacity="0.55"/><line x1="-7" y1="14" x2="-7" y2="23" stroke="#6a655c" stroke-width="1.4" stroke-linecap="round" opacity="0.55"/><line x1="10" y1="14" x2="10" y2="23" stroke="#6a655c" stroke-width="1.4" stroke-linecap="round" opacity="0.55"/><line x1="27" y1="14" x2="27" y2="23" stroke="#6a655c" stroke-width="1.4" stroke-linecap="round" opacity="0.55"/><line x1="-57" y1="32" x2="45" y2="32" stroke="#6a655c" stroke-width="1.4" stroke-linecap="round" opacity="0.55"/><line x1="-49.5" y1="23" x2="-49.5" y2="32" stroke="#6a655c" stroke-width="1.4" stroke-linecap="round" opacity="0.55"/><line x1="-32.5" y1="23" x2="-32.5" y2="32" stroke="#6a655c" stroke-width="1.4" stroke-linecap="round" opacity="0.55"/><line x1="-15.5" y1="23" x2="-15.5" y2="32" stroke="#6a655c" stroke-width="1.4" stroke-linecap="round" opacity="0.55"/><line x1="1.5" y1="23" x2="1.5" y2="32" stroke="#6a655c" stroke-width="1.4" stroke-linecap="round" opacity="0.55"/><line x1="18.5" y1="23" x2="18.5" y2="32" stroke="#6a655c" stroke-width="1.4" stroke-linecap="round" opacity="0.55"/><line x1="35.5" y1="23" x2="35.5" y2="32" stroke="#6a655c" stroke-width="1.4" stroke-linecap="round" opacity="0.55"/><line x1="-57" y1="41" x2="45" y2="41" stroke="#6a655c" stroke-width="1.4" stroke-linecap="round" opacity="0.55"/><line x1="-41" y1="32" x2="-41" y2="41" stroke="#6a655c" stroke-width="1.4" stroke-linecap="round" opacity="0.55"/><line x1="-24" y1="32" x2="-24" y2="41" stroke="#6a655c" stroke-width="1.4" stroke-linecap="round" opacity="0.55"/><line x1="-7" y1="32" x2="-7" y2="41" stroke="#6a655c" stroke-width="1.4" stroke-linecap="round" opacity="0.55"/><line x1="10" y1="32" x2="10" y2="41" stroke="#6a655c" stroke-width="1.4" stroke-linecap="round" opacity="0.55"/><line x1="27" y1="32" x2="27" y2="41" stroke="#6a655c" stroke-width="1.4" stroke-linecap="round" opacity="0.55"/><line x1="-57" y1="50" x2="45" y2="50" stroke="#6a655c" stroke-width="1.4" stroke-linecap="round" opacity="0.55"/><line x1="-49.5" y1="41" x2="-49.5" y2="50" stroke="#6a655c" stroke-width="1.4" stroke-linecap="round" opacity="0.55"/><line x1="-32.5" y1="41" x2="-32.5" y2="50" stroke="#6a655c" stroke-width="1.4" stroke-linecap="round" opacity="0.55"/><line x1="-15.5" y1="41" x2="-15.5" y2="50" stroke="#6a655c" stroke-width="1.4" stroke-linecap="round" opacity="0.55"/><line x1="1.5" y1="41" x2="1.5" y2="50" stroke="#6a655c" stroke-width="1.4" stroke-linecap="round" opacity="0.55"/><line x1="18.5" y1="41" x2="18.5" y2="50" stroke="#6a655c" stroke-width="1.4" stroke-linecap="round" opacity="0.55"/><line x1="35.5" y1="41" x2="35.5" y2="50" stroke="#6a655c" stroke-width="1.4" stroke-linecap="round" opacity="0.55"/><path d="M26 -4 L46 -4 L46 58 L26 58Z" fill="#8f897e" opacity="0.35"/><rect x="-61" y="-4" width="6" height="62" fill="#5a3620"/><rect x="43" y="-4" width="6" height="62" fill="#5a3620"/><rect x="14" y="-56" width="22" height="44" rx="2" fill="#bdb7aa" stroke="#17121f" stroke-width="3" stroke-linejoin="round" stroke-linecap="round"/><line x1="15" y1="-48" x2="35" y2="-48" stroke="#6a655c" stroke-width="1.4" stroke-linecap="round" opacity="0.55"/><line x1="24" y1="-56" x2="24" y2="-48" stroke="#6a655c" stroke-width="1.4" stroke-linecap="round" opacity="0.55"/><line x1="15" y1="-40" x2="35" y2="-40" stroke="#6a655c" stroke-width="1.4" stroke-linecap="round" opacity="0.55"/><line x1="19" y1="-48" x2="19" y2="-40" stroke="#6a655c" stroke-width="1.4" stroke-linecap="round" opacity="0.55"/><line x1="29" y1="-48" x2="29" y2="-40" stroke="#6a655c" stroke-width="1.4" stroke-linecap="round" opacity="0.55"/><line x1="15" y1="-32" x2="35" y2="-32" stroke="#6a655c" stroke-width="1.4" stroke-linecap="round" opacity="0.55"/><line x1="24" y1="-40" x2="24" y2="-32" stroke="#6a655c" stroke-width="1.4" stroke-linecap="round" opacity="0.55"/><line x1="15" y1="-24" x2="35" y2="-24" stroke="#6a655c" stroke-width="1.4" stroke-linecap="round" opacity="0.55"/><line x1="19" y1="-32" x2="19" y2="-24" stroke="#6a655c" stroke-width="1.4" stroke-linecap="round" opacity="0.55"/><line x1="29" y1="-32" x2="29" y2="-24" stroke="#6a655c" stroke-width="1.4" stroke-linecap="round" opacity="0.55"/><line x1="15" y1="-16" x2="35" y2="-16" stroke="#6a655c" stroke-width="1.4" stroke-linecap="round" opacity="0.55"/><line x1="24" y1="-24" x2="24" y2="-16" stroke="#6a655c" stroke-width="1.4" stroke-linecap="round" opacity="0.55"/><rect x="11" y="-60" width="28" height="8" rx="2" fill="#8f897e" stroke="#17121f" stroke-width="3" stroke-linejoin="round" stroke-linecap="round"/><circle cx="26" cy="-70" r="6" fill="#ffffff" opacity="0.5"/><circle cx="31" cy="-80" r="5" fill="#ffffff" opacity="0.35"/><path d="M26 -60 Q20.6 -67.2 25.4 -76.8 Q26.6 -69.6 31.4 -67.2 Q30.8 -61.2 26 -60Z" fill="#ff9c2f" stroke="#17121f" stroke-width="2" stroke-linejoin="round" stroke-linecap="round"/><path d="M26 -61 Q23.6 -64.8 26 -70.2 Q28.4 -64.8 26 -61Z" fill="#ffe36b"/><path d="M-40 58 L-40 24 Q-18 4 4 24 L4 58Z" fill="#24140e" stroke="#17121f" stroke-width="3" stroke-linejoin="round" stroke-linecap="round"/><path d="M-34 58 L-34 28 Q-18 12 -2 28 L-2 58Z" fill="#ff7a1c"/><path d="M-28 58 L-28 32 Q-18 22 -8 32 L-8 58Z" fill="#ffd24a"/><path d="M-18 58 Q-27.9 44.8 -19.1 27.199999999999996 Q-16.9 40.4 -8.1 44.8 Q-9.2 55.8 -18 58Z" fill="#ff9c2f" stroke="#17121f" stroke-width="2" stroke-linejoin="round" stroke-linecap="round"/><path d="M-18 57 Q-22.4 49.2 -18 39.3 Q-13.6 49.2 -18 57Z" fill="#ffe36b"/><path d="M-40 58 L-40 24 Q-18 4 4 24 L4 58Z" fill="none" stroke="#6a655c" stroke-width="5" stroke-linejoin="round" stroke-linecap="round"/><ellipse cx="-18" cy="40" rx="40" ry="26" fill="#ff9c2f" opacity="0.14"/><path d="M-66 4 L-48 -34 L36 -34 L54 4 Q-6 12 -66 4Z" fill="#66707f" stroke="#17121f" stroke-width="3" stroke-linejoin="round" stroke-linecap="round"/><path d="M-48 -34 L36 -34 L42 -22 L-54 -22Z" fill="#8794a6" opacity="0.55"/><line x1="-54" y1="-24.5" x2="42" y2="-24.5" stroke="#454d5b" stroke-width="1.8" stroke-linecap="round" opacity="0.6"/><line x1="-60" y1="-15" x2="48" y2="-15" stroke="#454d5b" stroke-width="1.8" stroke-linecap="round" opacity="0.6"/><line x1="-66" y1="-5.5" x2="54" y2="-5.5" stroke="#454d5b" stroke-width="1.8" stroke-linecap="round" opacity="0.6"/><path d="M-66 4 Q-6 12 54 4" fill="none" stroke="#454d5b" stroke-width="5" stroke-linejoin="round" stroke-linecap="round"/><rect x="20" y="22" width="22" height="22" rx="3" fill="#b98250" stroke="#17121f" stroke-width="2.6" stroke-linejoin="round" stroke-linecap="round"/><line x1="26" y1="40" x2="36" y2="28" stroke="#6d7885" stroke-width="3" stroke-linecap="round"/><rect x="30" y="25" width="9" height="5" rx="1.5" fill="#e1e9f0" stroke="#17121f" stroke-width="2" stroke-linejoin="round" stroke-linecap="round"/><rect x="40" y="56" width="26" height="9" rx="2" fill="#5a3620" stroke="#17121f" stroke-width="3" stroke-linejoin="round" stroke-linecap="round"/><path d="M32 40 L72 40 Q66 48 60 50 L62 56 L44 56 L46 50 Q38 48 32 40Z" fill="#48505c" stroke="#17121f" stroke-width="3" stroke-linejoin="round" stroke-linecap="round"/><path d="M34 41 L70 41 L68 44 L36 44Z" fill="#e1e9f0" opacity="0.85"/><path d="M48 28 L49.68 32.32 L54 34 L49.68 35.68 L48 40 L46.32 35.68 L42 34 L46.32 32.32 Z" fill="#ffe36b" opacity="1"/><path d="M58 26 L59.12 28.88 L62 30 L59.12 31.12 L58 34 L56.88 31.12 L54 30 L56.88 28.88 Z" fill="#ffb347" opacity="1"/><path d="M40 25 L40.84 27.16 L43 28 L40.84 28.84 L40 31 L39.16 28.84 L37 28 L39.16 27.16 Z" fill="#ffffff" opacity="0.8"/></g></svg>
