<svg xmlns="http://www.w3.org/2000/svg" width="340" height="360" viewBox="-85 -90 170 180"><g><ellipse cx="0" cy="68" rx="70" ry="12" fill="#000000" opacity="0.28"/><path d="M-72 60 Q-76 20 -56 -8 Q-44 -46 -8 -58 Q30 -66 50 -34 Q74 -6 72 60Z" fill="#66707f" stroke="#17121f" stroke-width="3" stroke-linejoin="round" stroke-linecap="round"/><path d="M-8 -58 Q30 -66 50 -34 Q74 -6 72 60 L34 60 Q46 6 20 -30 Q10 -50 -8 -58Z" fill="#454d5b" opacity="0.45"/><path d="M-56 -8 Q-44 -46 -8 -58 Q-30 -34 -34 0Z" fill="#8794a6" opacity="0.6"/><path d="M-50 20 l12 -8 l6 10" fill="none" stroke="#454d5b" stroke-width="2.4" stroke-linejoin="round" stroke-linecap="round"/><path d="M40 -8 l-10 10 l8 8" fill="none" stroke="#454d5b" stroke-width="2.4" stroke-linejoin="round" stroke-linecap="round"/><polygon points="-59,33 -54,24 -46,27 -45,35 -52,38" fill="#f2c14e" stroke="#17121f" stroke-width="2" stroke-linejoin="round" stroke-linecap="round"/><polygon points="-54,24 -46,27 -51,31" fill="#ffe58f" opacity="0.9"/><polygon points="36.3,25.3 41.8,15.4 50.6,18.7 51.7,27.5 44,30.8" fill="#f2c14e" stroke="#17121f" stroke-width="2" stroke-linejoin="round" stroke-linecap="round"/><polygon points="41.8,15.4 50.6,18.7 45.1,23.1" fill="#ffe58f" opacity="0.9"/><polygon points="20.4,-31.6 24.4,-38.8 30.8,-36.4 31.6,-30 26,-27.6" fill="#f2c14e" stroke="#17121f" stroke-width="2" stroke-linejoin="round" stroke-linecap="round"/><polygon points="24.4,-38.8 30.8,-36.4 26.8,-33.2" fill="#ffe58f" opacity="0.9"/><polygon points="-36.3,-27.3 -31.8,-35.4 -24.6,-32.7 -23.7,-25.5 -30,-22.8" fill="#f2c14e" stroke="#17121f" stroke-width="2" stroke-linejoin="round" stroke-linecap="round"/><polygon points="-31.8,-35.4 -24.6,-32.7 -29.1,-29.1" fill="#ffe58f" opacity="0.9"/><path d="M-30 62 L-30 4 Q0 -22 30 4 L30 62Z" fill="#1a1220" stroke="#17121f" stroke-width="3" stroke-linejoin="round" stroke-linecap="round"/><path d="M-24 62 L-24 8 Q0 -14 24 8 L24 62Z" fill="#0d0812"/><rect x="-36" y="0" width="10" height="64" fill="#8a5a34" stroke="#17121f" stroke-width="3" stroke-linejoin="round" stroke-linecap="round"/><rect x="26" y="0" width="10" height="64" fill="#8a5a34" stroke="#17121f" stroke-width="3" stroke-linejoin="round" stroke-linecap="round"/><rect x="-40" y="-6" width="80" height="12" rx="2" fill="#b98250" stroke="#17121f" stroke-width="3" stroke-linejoin="round" stroke-linecap="round"/><line x1="-36" y1="12" x2="-26" y2="4" stroke="#5a3620" stroke-width="3" stroke-linecap="round"/><line x1="36" y1="12" x2="26" y2="4" stroke="#5a3620" stroke-width="3" stroke-linecap="round"/><line x1="-20" y1="66" x2="18" y2="30" stroke="#6d7885" stroke-width="3.4" stroke-linecap="round"/><line x1="-8" y1="68" x2="30" y2="32" stroke="#6d7885" stroke-width="3.4" stroke-linecap="round"/><path d="M-18 44 L20 44 L16 62 L-14 62Z" fill="#6d7885" stroke="#17121f" stroke-width="3" stroke-linejoin="round" stroke-linecap="round"/><path d="M-18 44 L20 44 L19 49 L-17 49Z" fill="#a9b4c0"/><circle cx="-8" cy="42" r="7" fill="#f2c14e" stroke="#17121f" stroke-width="2" stroke-linejoin="round" stroke-linecap="round"/><circle cx="2" cy="40" r="8" fill="#f2c14e" stroke="#17121f" stroke-width="2" stroke-linejoin="round" stroke-linecap="round"/><circle cx="11" cy="42" r="6.5" fill="#f2c14e" stroke="#17121f" stroke-width="2" stroke-linejoin="round" stroke-linecap="round"/><circle cx="-2" cy="36" r="6" fill="#f2c14e" stroke="#17121f" stroke-width="2" stroke-linejoin="round" stroke-linecap="round"/><circle cx="-2" cy="38" r="3" fill="#ffe58f"/><circle cx="9" cy="40" r="2.4" fill="#ffe58f"/><circle cx="-10" cy="63" r="5" fill="#48505c" stroke="#17121f" stroke-width="2.2" stroke-linejoin="round" stroke-linecap="round"/><circle cx="10" cy="63" r="5" fill="#48505c" stroke="#17121f" stroke-width="2.2" stroke-linejoin="round" stroke-linecap="round"/><line x1="0" y1="-6" x2="0" y2="6" stroke="#17121f" stroke-width="4" stroke-linecap="round"/><rect x="-6" y="6" width="12" height="14" rx="3" fill="#ffdc8a" stroke="#17121f" stroke-width="2.4" stroke-linejoin="round" stroke-linecap="round"/><circle cx="0" cy="13" r="12" fill="#ffdc8a" opacity="0.25"/><polygon points="-67.7,59.9 -59.9,45.6 -46.9,49.5 -44.3,62.5 -56,67.7" fill="#f2c14e" stroke="#17121f" stroke-width="2.2" stroke-linejoin="round" stroke-linecap="round"/><path d="M-53.4 46.9 L-51.58 51.58 L-46.9 53.4 L-51.58 55.22 L-53.4 59.9 L-55.22 55.22 L-59.9 53.4 L-55.22 51.58 Z" fill="#ffffff" opacity="0.9"/><polygon points="-50.1,64.7 -44.7,54.8 -35.7,57.5 -33.9,66.5 -42,70.1" fill="#f2c14e" stroke="#17121f" stroke-width="2.2" stroke-linejoin="round" stroke-linecap="round"/><path d="M-40.2 55.7 L-38.94 58.94 L-35.7 60.2 L-38.94 61.46 L-40.2 64.7 L-41.46 61.46 L-44.7 60.2 L-41.46 58.94 Z" fill="#ffffff" opacity="0.9"/><polygon points="44.1,61.3 50.7,49.2 61.7,52.5 63.9,63.5 54,67.9" fill="#f2c14e" stroke="#17121f" stroke-width="2.2" stroke-linejoin="round" stroke-linecap="round"/><path d="M56.2 50.3 L57.74 54.26 L61.7 55.8 L57.74 57.34 L56.2 61.3 L54.66 57.34 L50.7 55.8 L54.66 54.26 Z" fill="#ffffff" opacity="0.9"/></g></svg>
