<svg xmlns="http://www.w3.org/2000/svg" width="300" height="320" viewBox="-75 -80 150 160"><g><ellipse cx="0" cy="62" rx="64" ry="11" fill="#000000" opacity="0.26"/><rect x="-50" y="12" width="30" height="44" rx="2" fill="#a56ac9" stroke="#17121f" stroke-width="3" stroke-linejoin="round" stroke-linecap="round"/><line x1="-49" y1="20" x2="-21" y2="20" stroke="#763f9a" stroke-width="1.4" stroke-linecap="round" opacity="0.55"/><line x1="-38" y1="12" x2="-38" y2="20" stroke="#763f9a" stroke-width="1.4" stroke-linecap="round" opacity="0.55"/><line x1="-26" y1="12" x2="-26" y2="20" stroke="#763f9a" stroke-width="1.4" stroke-linecap="round" opacity="0.55"/><line x1="-49" y1="28" x2="-21" y2="28" stroke="#763f9a" stroke-width="1.4" stroke-linecap="round" opacity="0.55"/><line x1="-44" y1="20" x2="-44" y2="28" stroke="#763f9a" stroke-width="1.4" stroke-linecap="round" opacity="0.55"/><line x1="-32" y1="20" x2="-32" y2="28" stroke="#763f9a" stroke-width="1.4" stroke-linecap="round" opacity="0.55"/><line x1="-49" y1="36" x2="-21" y2="36" stroke="#763f9a" stroke-width="1.4" stroke-linecap="round" opacity="0.55"/><line x1="-38" y1="28" x2="-38" y2="36" stroke="#763f9a" stroke-width="1.4" stroke-linecap="round" opacity="0.55"/><line x1="-26" y1="28" x2="-26" y2="36" stroke="#763f9a" stroke-width="1.4" stroke-linecap="round" opacity="0.55"/><line x1="-49" y1="44" x2="-21" y2="44" stroke="#763f9a" stroke-width="1.4" stroke-linecap="round" opacity="0.55"/><line x1="-44" y1="36" x2="-44" y2="44" stroke="#763f9a" stroke-width="1.4" stroke-linecap="round" opacity="0.55"/><line x1="-32" y1="36" x2="-32" y2="44" stroke="#763f9a" stroke-width="1.4" stroke-linecap="round" opacity="0.55"/><line x1="-49" y1="52" x2="-21" y2="52" stroke="#763f9a" stroke-width="1.4" stroke-linecap="round" opacity="0.55"/><line x1="-38" y1="44" x2="-38" y2="52" stroke="#763f9a" stroke-width="1.4" stroke-linecap="round" opacity="0.55"/><line x1="-26" y1="44" x2="-26" y2="52" stroke="#763f9a" stroke-width="1.4" stroke-linecap="round" opacity="0.55"/><path d="M-20 16 L-36 -8 L-56 16Z" fill="#55702c" stroke="#17121f" stroke-width="3" stroke-linejoin="round" stroke-linecap="round"/><path d="M-20 16 L-36 -8 L-36 16Z" fill="#3b5320" opacity="0.4"/><rect x="-39.5" y="26" width="9" height="15" rx="4.5" fill="#d9ff7a" stroke="#17121f" stroke-width="2.2" stroke-linejoin="round" stroke-linecap="round"/><rect x="20" y="12" width="30" height="44" rx="2" fill="#a56ac9" stroke="#17121f" stroke-width="3" stroke-linejoin="round" stroke-linecap="round"/><line x1="21" y1="20" x2="49" y2="20" stroke="#763f9a" stroke-width="1.4" stroke-linecap="round" opacity="0.55"/><line x1="32" y1="12" x2="32" y2="20" stroke="#763f9a" stroke-width="1.4" stroke-linecap="round" opacity="0.55"/><line x1="44" y1="12" x2="44" y2="20" stroke="#763f9a" stroke-width="1.4" stroke-linecap="round" opacity="0.55"/><line x1="21" y1="28" x2="49" y2="28" stroke="#763f9a" stroke-width="1.4" stroke-linecap="round" opacity="0.55"/><line x1="26" y1="20" x2="26" y2="28" stroke="#763f9a" stroke-width="1.4" stroke-linecap="round" opacity="0.55"/><line x1="38" y1="20" x2="38" y2="28" stroke="#763f9a" stroke-width="1.4" stroke-linecap="round" opacity="0.55"/><line x1="21" y1="36" x2="49" y2="36" stroke="#763f9a" stroke-width="1.4" stroke-linecap="round" opacity="0.55"/><line x1="32" y1="28" x2="32" y2="36" stroke="#763f9a" stroke-width="1.4" stroke-linecap="round" opacity="0.55"/><line x1="44" y1="28" x2="44" y2="36" stroke="#763f9a" stroke-width="1.4" stroke-linecap="round" opacity="0.55"/><line x1="21" y1="44" x2="49" y2="44" stroke="#763f9a" stroke-width="1.4" stroke-linecap="round" opacity="0.55"/><line x1="26" y1="36" x2="26" y2="44" stroke="#763f9a" stroke-width="1.4" stroke-linecap="round" opacity="0.55"/><line x1="38" y1="36" x2="38" y2="44" stroke="#763f9a" stroke-width="1.4" stroke-linecap="round" opacity="0.55"/><line x1="21" y1="52" x2="49" y2="52" stroke="#763f9a" stroke-width="1.4" stroke-linecap="round" opacity="0.55"/><line x1="32" y1="44" x2="32" y2="52" stroke="#763f9a" stroke-width="1.4" stroke-linecap="round" opacity="0.55"/><line x1="44" y1="44" x2="44" y2="52" stroke="#763f9a" stroke-width="1.4" stroke-linecap="round" opacity="0.55"/><path d="M20 16 L36 -8 L56 16Z" fill="#55702c" stroke="#17121f" stroke-width="3" stroke-linejoin="round" stroke-linecap="round"/><path d="M20 16 L36 -8 L36 16Z" fill="#3b5320" opacity="0.4"/><rect x="30.5" y="26" width="9" height="15" rx="4.5" fill="#d9ff7a" stroke="#17121f" stroke-width="2.2" stroke-linejoin="round" stroke-linecap="round"/><rect x="-24" y="-8" width="48" height="66" rx="2" fill="#a56ac9" stroke="#17121f" stroke-width="3" stroke-linejoin="round" stroke-linecap="round"/><line x1="-23" y1="1" x2="23" y2="1" stroke="#763f9a" stroke-width="1.4" stroke-linecap="round" opacity="0.55"/><line x1="-10" y1="-8" x2="-10" y2="1" stroke="#763f9a" stroke-width="1.4" stroke-linecap="round" opacity="0.55"/><line x1="4" y1="-8" x2="4" y2="1" stroke="#763f9a" stroke-width="1.4" stroke-linecap="round" opacity="0.55"/><line x1="18" y1="-8" x2="18" y2="1" stroke="#763f9a" stroke-width="1.4" stroke-linecap="round" opacity="0.55"/><line x1="-23" y1="10" x2="23" y2="10" stroke="#763f9a" stroke-width="1.4" stroke-linecap="round" opacity="0.55"/><line x1="-17" y1="1" x2="-17" y2="10" stroke="#763f9a" stroke-width="1.4" stroke-linecap="round" opacity="0.55"/><line x1="-3" y1="1" x2="-3" y2="10" stroke="#763f9a" stroke-width="1.4" stroke-linecap="round" opacity="0.55"/><line x1="11" y1="1" x2="11" y2="10" stroke="#763f9a" stroke-width="1.4" stroke-linecap="round" opacity="0.55"/><line x1="-23" y1="19" x2="23" y2="19" stroke="#763f9a" stroke-width="1.4" stroke-linecap="round" opacity="0.55"/><line x1="-10" y1="10" x2="-10" y2="19" stroke="#763f9a" stroke-width="1.4" stroke-linecap="round" opacity="0.55"/><line x1="4" y1="10" x2="4" y2="19" stroke="#763f9a" stroke-width="1.4" stroke-linecap="round" opacity="0.55"/><line x1="18" y1="10" x2="18" y2="19" stroke="#763f9a" stroke-width="1.4" stroke-linecap="round" opacity="0.55"/><line x1="-23" y1="28" x2="23" y2="28" stroke="#763f9a" stroke-width="1.4" stroke-linecap="round" opacity="0.55"/><line x1="-17" y1="19" x2="-17" y2="28" stroke="#763f9a" stroke-width="1.4" stroke-linecap="round" opacity="0.55"/><line x1="-3" y1="19" x2="-3" y2="28" stroke="#763f9a" stroke-width="1.4" stroke-linecap="round" opacity="0.55"/><line x1="11" y1="19" x2="11" y2="28" stroke="#763f9a" stroke-width="1.4" stroke-linecap="round" opacity="0.55"/><line x1="-23" y1="37" x2="23" y2="37" stroke="#763f9a" stroke-width="1.4" stroke-linecap="round" opacity="0.55"/><line x1="-10" y1="28" x2="-10" y2="37" stroke="#763f9a" stroke-width="1.4" stroke-linecap="round" opacity="0.55"/><line x1="4" y1="28" x2="4" y2="37" stroke="#763f9a" stroke-width="1.4" stroke-linecap="round" opacity="0.55"/><line x1="18" y1="28" x2="18" y2="37" stroke="#763f9a" stroke-width="1.4" stroke-linecap="round" opacity="0.55"/><line x1="-23" y1="46" x2="23" y2="46" stroke="#763f9a" stroke-width="1.4" stroke-linecap="round" opacity="0.55"/><line x1="-17" y1="37" x2="-17" y2="46" stroke="#763f9a" stroke-width="1.4" stroke-linecap="round" opacity="0.55"/><line x1="-3" y1="37" x2="-3" y2="46" stroke="#763f9a" stroke-width="1.4" stroke-linecap="round" opacity="0.55"/><line x1="11" y1="37" x2="11" y2="46" stroke="#763f9a" stroke-width="1.4" stroke-linecap="round" opacity="0.55"/><line x1="-23" y1="55" x2="23" y2="55" stroke="#763f9a" stroke-width="1.4" stroke-linecap="round" opacity="0.55"/><line x1="-10" y1="46" x2="-10" y2="55" stroke="#763f9a" stroke-width="1.4" stroke-linecap="round" opacity="0.55"/><line x1="4" y1="46" x2="4" y2="55" stroke="#763f9a" stroke-width="1.4" stroke-linecap="round" opacity="0.55"/><line x1="18" y1="46" x2="18" y2="55" stroke="#763f9a" stroke-width="1.4" stroke-linecap="round" opacity="0.55"/><path d="M6 -8 L24 -8 L24 58 L6 58Z" fill="#763f9a" opacity="0.45"/><rect x="-29" y="8" width="6" height="50" rx="1.5" fill="#8c8676" stroke="#17121f" stroke-width="2.2" stroke-linejoin="round" stroke-linecap="round"/><rect x="23" y="8" width="6" height="50" rx="1.5" fill="#8c8676" stroke="#17121f" stroke-width="2.2" stroke-linejoin="round" stroke-linecap="round"/><path d="M-11 58 L-11 34 Q0 14 11 34 L11 58Z" fill="#ffe08a" stroke="#17121f" stroke-width="3" stroke-linejoin="round" stroke-linecap="round"/><path d="M-11 58 L-11 34 Q0 14 11 34 L11 58Z" fill="none" stroke="#8f6a22" stroke-width="4" stroke-linejoin="round" stroke-linecap="round"/><line x1="0" y1="24" x2="0" y2="58" stroke="#8f6a22" stroke-width="2.4" stroke-linecap="round"/><path d="M-11 44 L11 44" fill="none" stroke="#8f6a22" stroke-width="2" stroke-linejoin="round" stroke-linecap="round"/><circle cx="0" cy="8" r="10" fill="#a3d84a" stroke="#17121f" stroke-width="3" stroke-linejoin="round" stroke-linecap="round"/><line x1="0" y1="8" x2="10" y2="8" stroke="#8f6a22" stroke-width="1.4" stroke-linecap="round"/><line x1="0" y1="8" x2="5" y2="16.66" stroke="#8f6a22" stroke-width="1.4" stroke-linecap="round"/><line x1="0" y1="8" x2="-5" y2="16.66" stroke="#8f6a22" stroke-width="1.4" stroke-linecap="round"/><line x1="0" y1="8" x2="-10" y2="8" stroke="#8f6a22" stroke-width="1.4" stroke-linecap="round"/><line x1="0" y1="8" x2="-5" y2="-0.66" stroke="#8f6a22" stroke-width="1.4" stroke-linecap="round"/><line x1="0" y1="8" x2="5" y2="-0.66" stroke="#8f6a22" stroke-width="1.4" stroke-linecap="round"/><circle cx="0" cy="8" r="3.4" fill="#ffe58f" stroke="#17121f" stroke-width="1.6" stroke-linejoin="round" stroke-linecap="round"/><rect x="-15" y="-44" width="30" height="36" rx="2" fill="#a56ac9" stroke="#17121f" stroke-width="3" stroke-linejoin="round" stroke-linecap="round"/><line x1="-14" y1="-36" x2="14" y2="-36" stroke="#763f9a" stroke-width="1.4" stroke-linecap="round" opacity="0.55"/><line x1="-4" y1="-44" x2="-4" y2="-36" stroke="#763f9a" stroke-width="1.4" stroke-linecap="round" opacity="0.55"/><line x1="7" y1="-44" x2="7" y2="-36" stroke="#763f9a" stroke-width="1.4" stroke-linecap="round" opacity="0.55"/><line x1="-14" y1="-28" x2="14" y2="-28" stroke="#763f9a" stroke-width="1.4" stroke-linecap="round" opacity="0.55"/><line x1="-9.5" y1="-36" x2="-9.5" y2="-28" stroke="#763f9a" stroke-width="1.4" stroke-linecap="round" opacity="0.55"/><line x1="1.5" y1="-36" x2="1.5" y2="-28" stroke="#763f9a" stroke-width="1.4" stroke-linecap="round" opacity="0.55"/><line x1="12.5" y1="-36" x2="12.5" y2="-28" stroke="#763f9a" stroke-width="1.4" stroke-linecap="round" opacity="0.55"/><line x1="-14" y1="-20" x2="14" y2="-20" stroke="#763f9a" stroke-width="1.4" stroke-linecap="round" opacity="0.55"/><line x1="-4" y1="-28" x2="-4" y2="-20" stroke="#763f9a" stroke-width="1.4" stroke-linecap="round" opacity="0.55"/><line x1="7" y1="-28" x2="7" y2="-20" stroke="#763f9a" stroke-width="1.4" stroke-linecap="round" opacity="0.55"/><line x1="-14" y1="-12" x2="14" y2="-12" stroke="#763f9a" stroke-width="1.4" stroke-linecap="round" opacity="0.55"/><line x1="-9.5" y1="-20" x2="-9.5" y2="-12" stroke="#763f9a" stroke-width="1.4" stroke-linecap="round" opacity="0.55"/><line x1="1.5" y1="-20" x2="1.5" y2="-12" stroke="#763f9a" stroke-width="1.4" stroke-linecap="round" opacity="0.55"/><line x1="12.5" y1="-20" x2="12.5" y2="-12" stroke="#763f9a" stroke-width="1.4" stroke-linecap="round" opacity="0.55"/><path d="M4 -44 L15 -44 L15 -8 L4 -8Z" fill="#763f9a" opacity="0.45"/><path d="M-7 -14 L-7 -30 Q0 -40 7 -30 L7 -14Z" fill="#2b1c12" stroke="#17121f" stroke-width="3" stroke-linejoin="round" stroke-linecap="round"/><circle cx="0" cy="-24" r="3.5" fill="#d6a03f" stroke="#17121f" stroke-width="1.6" stroke-linejoin="round" stroke-linecap="round"/><path d="M-19 -42 L0 -70 L19 -42 Q0 -37 -19 -42Z" fill="#d6a03f" stroke="#17121f" stroke-width="3" stroke-linejoin="round" stroke-linecap="round"/><path d="M0 -70 L19 -42 Q10 -40 4 -40Z" fill="#8f6a22" opacity="0.7"/><path d="M-11 -48 L-2 -63" fill="none" stroke="#f0cd7c" stroke-width="3" stroke-linejoin="round" stroke-linecap="round"/><line x1="0" y1="-70" x2="0" y2="-84" stroke="#17121f" stroke-width="6.5" stroke-linecap="round"/><line x1="-6" y1="-78" x2="6" y2="-78" stroke="#17121f" stroke-width="6.5" stroke-linecap="round"/><line x1="0" y1="-70" x2="0" y2="-84" stroke="#f0cd7c" stroke-width="3" stroke-linecap="round"/><line x1="-6" y1="-78" x2="6" y2="-78" stroke="#f0cd7c" stroke-width="3" stroke-linecap="round"/><path d="M-32 -6 L-20 -20 L20 -20 L32 -6 Q0 0 -32 -6Z" fill="#55702c" stroke="#17121f" stroke-width="3" stroke-linejoin="round" stroke-linecap="round"/><path d="M-32 -6 Q0 0 32 -6 Q0 -3 -32 -6Z" fill="#2b3c17"/><path d="M-34 -46 L-32.32 -41.68 L-28 -40 L-32.32 -38.32 L-34 -34 L-35.68 -38.32 L-40 -40 L-35.68 -41.68 Z" fill="#fff6c8" opacity="0.9"/><path d="M36 -59 L37.4 -55.4 L41 -54 L37.4 -52.6 L36 -49 L34.6 -52.6 L31 -54 L34.6 -55.4 Z" fill="#fff6c8" opacity="0.9"/></g></svg>
