<svg xmlns="http://www.w3.org/2000/svg" width="256" height="256" viewBox="-64 -64 128 128"><circle cx="0" cy="0" r="52" fill="#7cc7ff" stroke="#17121f" stroke-width="4" stroke-linejoin="round" stroke-linecap="round" opacity="0.9"/><circle cx="0" cy="0" r="52" fill="none" stroke="#e8f8ff" stroke-width="3" stroke-linejoin="round" stroke-linecap="round" opacity="0.8"/><g transform="rotate(0)"><line x1="-44" y1="0" x2="44" y2="0" stroke="#17121f" stroke-width="12" stroke-linecap="round"/><line x1="-44" y1="0" x2="44" y2="0" stroke="#dff6ff" stroke-width="7" stroke-linecap="round"/><polygon points="-44,0 -34,-9 -30,0 -34,9" fill="#dff6ff" stroke="#17121f" stroke-width="2.4" stroke-linejoin="round" stroke-linecap="round"/><polygon points="44,0 34,-9 30,0 34,9" fill="#dff6ff" stroke="#17121f" stroke-width="2.4" stroke-linejoin="round" stroke-linecap="round"/><line x1="-22" y1="0" x2="-32" y2="-13" stroke="#dff6ff" stroke-width="5" stroke-linecap="round"/><line x1="-22" y1="0" x2="-32" y2="13" stroke="#dff6ff" stroke-width="5" stroke-linecap="round"/><line x1="22" y1="0" x2="32" y2="-13" stroke="#dff6ff" stroke-width="5" stroke-linecap="round"/><line x1="22" y1="0" x2="32" y2="13" stroke="#dff6ff" stroke-width="5" stroke-linecap="round"/></g><g transform="rotate(60)"><line x1="-44" y1="0" x2="44" y2="0" stroke="#17121f" stroke-width="12" stroke-linecap="round"/><line x1="-44" y1="0" x2="44" y2="0" stroke="#dff6ff" stroke-width="7" stroke-linecap="round"/><polygon points="-44,0 -34,-9 -30,0 -34,9" fill="#dff6ff" stroke="#17121f" stroke-width="2.4" stroke-linejoin="round" stroke-linecap="round"/><polygon points="44,0 34,-9 30,0 34,9" fill="#dff6ff" stroke="#17121f" stroke-width="2.4" stroke-linejoin="round" stroke-linecap="round"/><line x1="-22" y1="0" x2="-32" y2="-13" stroke="#dff6ff" stroke-width="5" stroke-linecap="round"/><line x1="-22" y1="0" x2="-32" y2="13" stroke="#dff6ff" stroke-width="5" stroke-linecap="round"/><line x1="22" y1="0" x2="32" y2="-13" stroke="#dff6ff" stroke-width="5" stroke-linecap="round"/><line x1="22" y1="0" x2="32" y2="13" stroke="#dff6ff" stroke-width="5" stroke-linecap="round"/></g><g transform="rotate(120)"><line x1="-44" y1="0" x2="44" y2="0" stroke="#17121f" stroke-width="12" stroke-linecap="round"/><line x1="-44" y1="0" x2="44" y2="0" stroke="#dff6ff" stroke-width="7" stroke-linecap="round"/><polygon points="-44,0 -34,-9 -30,0 -34,9" fill="#dff6ff" stroke="#17121f" stroke-width="2.4" stroke-linejoin="round" stroke-linecap="round"/><polygon points="44,0 34,-9 30,0 34,9" fill="#dff6ff" stroke="#17121f" stroke-width="2.4" stroke-linejoin="round" stroke-linecap="round"/><line x1="-22" y1="0" x2="-32" y2="-13" stroke="#dff6ff" stroke-width="5" stroke-linecap="round"/><line x1="-22" y1="0" x2="-32" y2="13" stroke="#dff6ff" stroke-width="5" stroke-linecap="round"/><line x1="22" y1="0" x2="32" y2="-13" stroke="#dff6ff" stroke-width="5" stroke-linecap="round"/><line x1="22" y1="0" x2="32" y2="13" stroke="#dff6ff" stroke-width="5" stroke-linecap="round"/></g><circle cx="0" cy="0" r="9" fill="#ffffff" stroke="#17121f" stroke-width="3" stroke-linejoin="round" stroke-linecap="round"/><path d="M-40 -48 L-37.76 -42.24 L-32 -40 L-37.76 -37.76 L-40 -32 L-42.24 -37.76 L-48 -40 L-42.24 -42.24 Z" fill="#ffffff" opacity="1"/><path d="M42 32 L43.68 36.32 L48 38 L43.68 39.68 L42 44 L40.32 39.68 L36 38 L40.32 36.32 Z" fill="#ffffff" opacity="0.9"/></svg>
