<svg xmlns="http://www.w3.org/2000/svg" width="256" height="256" viewBox="-64 -64 128 128"><path d="M-34 46 Q-52 8 -30 -12 L-16 -30 L16 -30 L30 -12 Q52 8 34 46Z" fill="#9a6b3a" stroke="#17121f" stroke-width="4.4" stroke-linejoin="round" stroke-linecap="round"/><path d="M-16 -30 L16 -30 L30 -12 L-30 -12Z" fill="#b98552" opacity="0.8"/><path d="M-24 -14 Q0 -4 24 -14" fill="none" stroke="#17121f" stroke-width="9" stroke-linejoin="round" stroke-linecap="round"/><path d="M-24 -14 Q0 -4 24 -14" fill="none" stroke="#e8c55a" stroke-width="4.4" stroke-linejoin="round" stroke-linecap="round"/><path d="M-14 -30 Q0 -44 14 -30" fill="none" stroke="#e8c55a" stroke-width="5" stroke-linejoin="round" stroke-linecap="round"/><circle cx="0" cy="16" r="15" fill="#f5c33b" stroke="#17121f" stroke-width="3.4" stroke-linejoin="round" stroke-linecap="round"/><polygon points="0,9 2.12,14.09 7.61,14.53 3.42,18.11 4.7,23.47 0,20.6 -4.7,23.47 -3.42,18.11 -7.61,14.53 -2.12,14.09" fill="#ffe58f" stroke="#17121f" stroke-width="2" stroke-linejoin="round" stroke-linecap="round"/><circle cx="38" cy="-34" r="11" fill="#f5c33b" stroke="#17121f" stroke-width="3" stroke-linejoin="round" stroke-linecap="round"/><circle cx="50" cy="-10" r="9" fill="#f5c33b" stroke="#17121f" stroke-width="3" stroke-linejoin="round" stroke-linecap="round"/><line x1="-46" y1="-46" x2="-8" y2="-6" stroke="#17121f" stroke-width="12" stroke-linecap="round"/><line x1="-46" y1="-46" x2="-8" y2="-6" stroke="#dfe6ee" stroke-width="6" stroke-linecap="round"/><rect x="-58" y="-60" width="22" height="10" rx="4" fill="#5a3a22" stroke="#17121f" stroke-width="3" stroke-linejoin="round" stroke-linecap="round" transform="rotate(-45 -47 -55)"/></svg>
