<svg xmlns="http://www.w3.org/2000/svg" width="208" height="208" viewBox="-52 -52 104 104"><g transform="scale(1)"><g transform="translate(12 13) rotate(18)"><rect x="-4" y="-2" width="8" height="22" rx="3" fill="#84502b" stroke="#17121f" stroke-width="3" stroke-linejoin="round" stroke-linecap="round"/><line x1="-2" y1="-2" x2="-3.5" y2="-9" stroke="#d3c7a6" stroke-width="1.8" stroke-linecap="round"/><line x1="1" y1="-2" x2="2.5" y2="-10" stroke="#d95b4a" stroke-width="1.8" stroke-linecap="round"/><line x1="3" y1="-2" x2="5" y2="-8" stroke="#d3c7a6" stroke-width="1.8" stroke-linecap="round"/></g><ellipse cx="-8" cy="14" rx="5.5" ry="8" fill="#4a3a22" stroke="#17121f" stroke-width="3" stroke-linejoin="round" stroke-linecap="round"/><ellipse cx="8" cy="14" rx="5.5" ry="8" fill="#4a3a22" stroke="#17121f" stroke-width="3" stroke-linejoin="round" stroke-linecap="round"/><g transform="rotate(0 0 6)"><ellipse cx="0" cy="6" rx="19" ry="14" fill="#5b9a45" stroke="#17121f" stroke-width="3" stroke-linejoin="round" stroke-linecap="round"/><path d="M-14 11 Q0 21 14 11 Q0 16 -14 11Z" fill="#356a2d" opacity="0.65"/><path d="M-16 0 L14 14" fill="none" stroke="#84502b" stroke-width="5" stroke-linejoin="round" stroke-linecap="round"/><circle cx="-17" cy="3" r="7" fill="#356a2d" stroke="#17121f" stroke-width="3" stroke-linejoin="round" stroke-linecap="round"/><circle cx="17" cy="3" r="7" fill="#356a2d" stroke="#17121f" stroke-width="3" stroke-linejoin="round" stroke-linecap="round"/><line x1="-16" y1="3" x2="-4" y2="-27" stroke="#17121f" stroke-width="10.5" stroke-linecap="round"/><line x1="-16" y1="3" x2="-4" y2="-27" stroke="#356a2d" stroke-width="5.5" stroke-linecap="round"/><path d="M-21 -20 Q-3 -50 15 -20" fill="none" stroke="#17121f" stroke-width="8" stroke-linejoin="round" stroke-linecap="round"/><path d="M-21 -20 Q-3 -50 15 -20" fill="none" stroke="#b98250" stroke-width="4.2" stroke-linejoin="round" stroke-linecap="round"/><path d="M-21 -20 L-3 -22 L15 -20" fill="none" stroke="#f3ead2" stroke-width="1.6" stroke-linejoin="round" stroke-linecap="round"/><circle cx="-4" cy="-27" r="4.4" fill="#f1c39b" stroke="#17121f" stroke-width="3" stroke-linejoin="round" stroke-linecap="round"/><line x1="17" y1="3" x2="-2" y2="-20" stroke="#17121f" stroke-width="10.5" stroke-linecap="round"/><line x1="17" y1="3" x2="-2" y2="-20" stroke="#356a2d" stroke-width="5.5" stroke-linecap="round"/><circle cx="-2" cy="-20" r="4.4" fill="#f1c39b" stroke="#17121f" stroke-width="3" stroke-linejoin="round" stroke-linecap="round"/></g><g transform="rotate(0 0 6)"><polygon points="-9,4 0,19 9,4" fill="#356a2d" stroke="#17121f" stroke-width="3" stroke-linejoin="round" stroke-linecap="round"/><circle cx="0" cy="-5" r="13.5" fill="#5b9a45" stroke="#17121f" stroke-width="3" stroke-linejoin="round" stroke-linecap="round"/><ellipse cx="-4" cy="-9" rx="7.5" ry="5" fill="#86c465" opacity="0.8"/><path d="M-6.5 -13.5 Q0 -17 6.5 -13.5 Q0 -10 -6.5 -13.5Z" fill="#f1c39b" stroke="#17121f" stroke-width="2" stroke-linejoin="round" stroke-linecap="round"/><path d="M0 -6 L0 14" fill="none" stroke="#356a2d" stroke-width="2" stroke-linejoin="round" stroke-linecap="round"/></g></g></svg>
